/* XPM */
static char *bitcoin32_xpm[] = {
/* width height num_colors chars_per_pixel */
"    32    32      256            2",
/* colors */
"`` c #ffffff",
"`. c #fbfbfb",
"`# c #fefefe",
"`a c #fcfcfc",
"`b c #cdcdd0",
"`c c #8e919c",
"`d c #60667c",
"`e c #444d6b",
"`f c #394265",
"`g c #f3f3f3",
"`h c #999ca4",
"`i c #424b6a",
"`j c #1d2b57",
"`k c #1c2a5a",
"`l c #1c2a59",
"`m c #1c2958",
"`n c #1c2957",
"`o c #fdfdfd",
"`p c #abadb2",
"`q c #313c60",
"`r c #1d2b5c",
"`s c #1c2a58",
"`t c #1b2855",
"`u c #1d2a56",
"`v c #1c2956",
"`w c #1e2b57",
"`x c #f6f6f6",
"`y c #676d80",
"`z c #1e2a56",
"`A c #1c2955",
"`B c #182553",
"`C c #162351",
"`D c #eeeeee",
"`E c #4a526f",
"`F c #1f2b56",
"`G c #1a2754",
"`H c #313d65",
"`I c #3e496f",
"`J c #152251",
"`K c #f5f5f5",
"`L c #4a5370",
"`M c #1d2b5b",
"`N c #192654",
"`O c #26325d",
"`P c #1f2c58",
"`Q c #192653",
"`R c #24315c",
"`S c #2a3660",
"`T c #182653",
"`U c #1c2855",
"`V c #1e2854",
"`W c #696f82",
"`X c #13204f",
"`Y c #afb3c1",
"`Z c #616a88",
"`0 c #0e1c4c",
"`1 c #1d2a57",
"`2 c #192553",
"`3 c #1f2955",
"`4 c #172856",
"`5 c #0f2a58",
"`6 c #0c2a59",
"`7 c #0d2a59",
"`8 c #152956",
".` c #1e2b56",
".. c #a7a9b0",
".# c #1e2a55",
".a c #364169",
".b c #26335d",
".c c #1e2a57",
".d c #0d2c5a",
".e c #292651",
".f c #581f45",
".g c #7c1a3c",
".h c #a61431",
".i c #901736",
".j c #f2f2f2",
".k c #364164",
".l c #0f204f",
".m c #2b2853",
".n c #901030",
".o c #dc0e25",
".p c #f4081c",
".q c #f5081c",
".r c #ff0618",
".s c #999ba4",
".t c #1d2a55",
".u c #0c1949",
".v c #596484",
".w c #e7dee2",
".x c #fb4855",
".y c #eb000e",
".z c #e70f24",
".A c #e30a21",
".B c #48506d",
".C c #162452",
".D c #2f3b64",
".E c #414b71",
".F c #1d2855",
".G c #0a1849",
".H c #646d8b",
".I c #f8f8f8",
".J c #f5fdfc",
".K c #eef2f3",
".L c #eb4856",
".M c #e80010",
".N c #591f45",
".O c #cbccce",
".P c #23305b",
".Q c #1a2855",
".R c #132957",
".S c #162956",
".T c #1b2d59",
".U c #656e8b",
".V c #fafaf9",
".W c #fff8f4",
".X c #fcf1ef",
".Y c #f3f7f7",
".Z c #eb4756",
".0 c #90939d",
".1 c #1d2a5a",
".2 c #172552",
".3 c #1b2956",
".4 c #1d2854",
".5 c #172956",
".6 c #3e234c",
".7 c #312953",
".8 c #1b1644",
"#` c #666d8b",
"#. c #fefbf9",
"## c #e7f1f4",
"#a c #84d9f1",
"#b c #a9e3f3",
"#c c #f9f2f1",
"#d c #eff2f3",
"#e c #911030",
"#f c #62687d",
"#g c #1b2955",
"#h c #b2122d",
"#i c #f00d21",
"#j c #de0011",
"#k c #d75d6d",
"#l c #f2fbfb",
"#m c #fff6f4",
"#n c #4fcdf1",
"#o c #00b8f2",
"#p c #00baf2",
"#q c #fef2ef",
"#r c #f5fbfa",
"#s c #e6d7dd",
"#t c #2b2953",
"#u c #172855",
"#v c #464f6c",
"#w c #152957",
"#x c #b5122d",
"#y c #f80c1f",
"#z c #e6000f",
"#A c #ef5a67",
"#B c #f8fafa",
"#C c #f2f4f4",
"#D c #f6f3f2",
"#E c #31c6f2",
"#F c #00b7f2",
"#G c #89d9f1",
"#H c #f7f8f8",
"#I c #394365",
"#J c #192856",
"#K c #252652",
"#L c #bc112b",
"#M c #fb0a1c",
"#N c #e2000e",
"#O c #ec5b68",
"#P c #f3fbfb",
"#Q c #f0f1f1",
"#R c #fdf5f3",
"#S c #b6e5f3",
"#T c #26c6f2",
"#U c #e9f1f4",
"#V c #fdfbf9",
"#W c #212e59",
"#X c #112958",
"#Y c #871839",
"#Z c #e30d22",
"#0 c #d9031b",
"#1 c #f56470",
"#2 c #f3fbfa",
"#3 c #f3f4f4",
"#4 c #f3f1f1",
"#5 c #f2f3f3",
"#6 c #fbf5f3",
"#7 c #f8f2f1",
"#8 c #fcf6f4",
"a` c #fbfbf9",
"a. c #1a2755",
"a# c #515a7c",
"aa c #222a56",
"ab c #241b48",
"ac c #868fa5",
"ad c #fffffe",
"ae c #f1eff0",
"af c #f3fafa",
"ag c #1b2a56",
"ah c #152653",
"ai c #344367",
"aj c #b9c1c9",
"ak c #fbfaf9",
"al c #f8faf9",
"am c #1b2c59",
"an c #0d1d54",
"ao c #6a7b94",
"ap c #788a9a",
"aq c #b2bbc5",
"ar c #f1f0f0",
"as c #f3f3f4",
"at c #df0011",
"au c #172656",
"av c #746451",
"aw c #4b5065",
"ax c #6a7f9b",
"ay c #fefffd",
"az c #ec5a68",
"aA c #0e1f55",
"aB c #6b5f54",
"aC c #ffd052",
"aD c #c89c4c",
"aE c #6a7c94",
"aF c #b4122d",
"aG c #0e1b4b",
"aH c #142250",
"aI c #b49552",
"aJ c #ffcd51",
"aK c #ffd051",
"aL c #736451",
"aM c #241c48",
"aN c #d9051b",
"aO c #fa0a1d",
"aP c #b6122c",
"aQ c #152351",
"aR c #6f7792",
"aS c #434e73",
"aT c #13214f",
"aU c #142355",
"aV c #907853",
"aW c #bb9652",
"aX c #212955",
"aY c #142150",
"aZ c #8d93a8",
"a0 c #535c7e",
"a1 c #111e4d",
"a2 c #861839",
"a3 c #0f1c4c",
"a4 c #192956",
"a5 c #152250",
"a6 c #465175",
"a7 c #24305b",
"a8 c #000000",
/* pixels */
"```````````````.`#```a`b`c`d`e`f`f`e`d`c`b`a```#`.``````````````",
"```````````#`a```g`h`i`j`k`l`m`n`n`m`l`k`j`i`h`g```a`#``````````",
"`````````o`a```p`q`r`s`t`u`u`v`t`t`u`w`u`t`s`r`q`p```a`o````````",
"```````o```x`y`r`n`z`u`A`t`t`t`t`v`B`C`v`t`u`z`n`r`y`x```o``````",
"`````o```D`E`r`F`A`t`t`B`G`t`t`v`C`H`I`J`v`t`t`A`F`r`E`D```o````",
"```#```K`L`M`F`t`t`t`N`O`P`G`t`t`Q`R`S`T`U`V`V`V`U`F`M`L`K```#``",
"```o```W`r`F`t`t`t`v`X`Y`Z`0`1`t`U`Q`2`3`4`5`6`7`8`U.``r`W```o``",
"`a``..`M.#`t`t`t`t`A`B.a.b`Q`t`t`t.c`4.d.e.f.g.h.i`8`U.#`M..```a",
"``.j.k`n`A`A`v`t`t`t`A`J`T`A`t`t.c.l.m.n.o.p.q.r.h`7`V`A`n.k.j``",
"``.s`r.t`v`B`C`v`t`t`t`v`t`t`t`P.u.v.w.x.y.z.A.q.g`6`V`t.#`r.s``",
"``.B`s`v.C.D.E`J`v`t`U.F`U`U`P.G.H.I.J.K.L.M.z.p.N`5`V`t`A`s.B``",
".O`j`t`t`N.P`S`Q`t`U.Q.R.S.T.G.U.V.W.X.Y`g.Z.y.o.e`4`U`t`t`t`j.O",
".0.1`u`t`t`N.2.3.4.5.F.6.7.8#`#.###a#b#c.Y#d.x#e.d`V`t`t`t`u.1.0",
"#f`l`u`t`t`t#g.4.5`t#h#i#j#k#l#m#n#o#p#b#q#r#s#t#u`U`t`t`t`u`l#f",
"#v`m`A`t`t`t.F#w.Q#x#y#z#A#B#C#D#E#p#F#G.W#H.v.l`z`t`G`t`t`A`m#v",
"#I`n`t`t`t`U#J#K#L#M#N#O#P#C#Q#R#S#T#n#U#V.H.u.c`t`t#W`t`t`t`n#I",
"#I`n`t`t`t.4#X#Y#Z#0#1#2#3#4`g#5#6#7#8a`.U.G`P`t`ta.a#`P`G`t`n#I",
"#v`m`A`t`t`t`t`Vaaabacadae`g`g`g#Q#Caf#`.G`P`t`t`t`t`N`t`t`A`m#v",
"#f`l`u`t`t`t`t.Qagahaiajak.j`g#4#Cal#k.8am`U`t`t`t`t`t`t`t`u`l#f",
".0.1`u`t`t`t`t`t`Uanaoapaqakaras#P#Aat.7.S`U`t`t`t`t`t`t`t`u.1.0",
".O`j`t`t`t`t`t`tauavawaxapajayafaz#z#i.6.R.F`t`t`1`v`t`t`t`t`1.O",
"``.B`s`A`t`t.#aAaBaCaDawaEaiac#1#N#yaF.4.Q`U`t`UaGaH`v`t`A`s.B``",
"``.s`r.#`t`t.#aAaIaJaKaLanahaMaNaOaP`U.5`U`t`vaQaRaSaT`v.#`r.s``",
"``.j.k`n`A`t`AaUaVaWaBau`UagaX#Z#L.Q.5.4`t`t`vaYaZa0a1.c`n.k.j``",
"`a``..`M.#`t`t`taUaAaA`t`t.Q`Va2#K#w.4`t`t`t`t`ta3aH`v.t`M..```a",
"```o```W`r`F`t`t`A.#.#`t`t`t`t#Xa4.4`v`t`t`t`t`t`1`v.``r`W```o``",
"```#```K`L`M`F`t`t`t`t`t`t`t`t.4`U`t.2`N`t`t`t`t`t`F`M`L`K```#``",
"`````o```D`E`r`F`A`t`t`t`t`t`t`t`va5a6.D.C`A`t`A`F`r`E`D```o````",
"```````o```x`y`r`n`z`u`t`t`t`t`t`t`Ga7`P`G`u`z`n`r`y`x```o``````",
"`````````o`a```p`q`r`s`t`u`u`v`t`t`v`t`A`t`s`r`q`p```a`o````````",
"```````````#`a```g`h`i`j`k`l`m`n`n`n`l`k`1`i`h`g```a`#``````````",
"```````````````.`#```a`b`c`d`e`f`f`e`d`c`b`a```#`.``````````````"
};
