/* XPM */
static char *bitcoin16_xpm[] = {
/* width height num_colors chars_per_pixel */
"    16    16      256            2",
/* colors */
"`` c #ffffff",
"`. c #fefefe",
"`# c #fcfcfc",
"`a c #dbdbdc",
"`b c #7c808e",
"`c c #414968",
"`d c #2a355c",
"`e c #404968",
"`f c #7c7f8e",
"`g c #fdfdfd",
"`h c #8a8d98",
"`i c #232f5a",
"`j c #1a2858",
"`k c #1a2856",
"`l c #1b2956",
"`m c #1c2956",
"`n c #1d2a58",
"`o c #1e2a59",
"`p c #242e59",
"`q c #8b8d98",
"`r c #656b7e",
"`s c #1e2c5e",
"`t c #27345c",
"`u c #23305b",
"`v c #182553",
"`w c #24315c",
"`x c #28345f",
"`y c #152856",
"`z c #112d5a",
"`A c #182d5f",
"`B c #666b7e",
"`C c #888b97",
"`D c #1d2c5d",
"`E c #212d58",
"`F c #142250",
"`G c #414c71",
"`H c #333e66",
"`I c #182552",
"`J c #0e1d4c",
"`K c #322852",
"`L c #5c1e43",
"`M c #3d274f",
"`N c #898b97",
"`O c #d8d9da",
"`P c #26325c",
"`Q c #1c2955",
"`R c #192351",
"`S c #1e2855",
"`T c #141f4e",
"`U c #233d67",
"`V c #a15b72",
"`W c #e30014",
"`X c #fe091b",
"`Y c #5c1e44",
"`Z c #0e2a59",
"`0 c #29325c",
"`1 c #7e8290",
"`2 c #1b2959",
"`3 c #24305a",
"`4 c #192653",
"`5 c #102f5d",
"`6 c #082353",
"`7 c #29325d",
"`8 c #dad4d9",
".` c #ed5e6b",
".. c #e20014",
".# c #322752",
".a c #172a57",
".b c #454d6b",
".c c #1c2958",
".d c #1c2855",
".e c #162855",
".f c #132c59",
".g c #7c1033",
".h c #812546",
".i c #d2d4db",
".j c #6dddfb",
".k c #77d5f0",
".l c #fffffe",
".m c #a05b72",
".n c #0e1d4d",
".o c #1d2a57",
".p c #2b365e",
".q c #1c2856",
".r c #1a2855",
".s c #1f2955",
".t c #ac0f2c",
".u c #ff1929",
".v c #fcc9cc",
".w c #fefffe",
".x c #2fc0eb",
".y c #6cddfb",
".z c #ded5d9",
".A c #223c67",
".B c #212d59",
".C c #1b2856",
".D c #2c375e",
".E c #1d2856",
".F c #162956",
".G c #372650",
".H c #8a0f2e",
".I c #d3afb8",
".J c #f7ffff",
".K c #eee9ea",
".L c #d2d4da",
".M c #28325d",
".N c #131e4d",
".O c #202d59",
".P c #26325d",
".Q c #1a2755",
".R c #1d2955",
".S c #192a57",
".T c #001f57",
".U c #67809d",
".V c #f0ecec",
".W c #f6ffff",
".X c #fec9cb",
".Y c #812646",
".Z c #072353",
".0 c #212b57",
".1 c #1a2754",
".2 c #1d2a5a",
".3 c #1e2b56",
".4 c #122155",
".5 c #8b7150",
".6 c #8d7f69",
".7 c #d3b0ba",
".8 c #ff1b29",
"#` c #7c1133",
"#. c #0f2d5c",
"## c #1e2754",
"#a c #1b2855",
"#b c #1d2a56",
"#c c #27325c",
"#d c #172555",
"#e c #c29b51",
"#f c #89102e",
"#g c #ad112c",
"#h c #142c5a",
"#i c #1a2653",
"#j c #222e5a",
"#k c #505a7c",
"#l c #192654",
"#m c #27335d",
"#n c #1e2c5d",
"#o c #212d57",
"#p c #1f2855",
"#q c #142754",
"#r c #232f59",
"#s c #1d2956",
"#t c #29345e",
"#u c #1d2b5d",
"#v c #232e59",
"#w c #1c2a5a",
"#x c #212e5c",
"#y c #232e5a",
"#z c #2a355d",
"#A c #404967",
"#B c #000000",
"#C c #000000",
"#D c #000000",
"#E c #000000",
"#F c #000000",
"#G c #000000",
"#H c #000000",
"#I c #000000",
"#J c #000000",
"#K c #000000",
"#L c #000000",
"#M c #000000",
"#N c #000000",
"#O c #000000",
"#P c #000000",
"#Q c #000000",
"#R c #000000",
"#S c #000000",
"#T c #000000",
"#U c #000000",
"#V c #000000",
"#W c #000000",
"#X c #000000",
"#Y c #000000",
"#Z c #000000",
"#0 c #000000",
"#1 c #000000",
"#2 c #000000",
"#3 c #000000",
"#4 c #000000",
"#5 c #000000",
"#6 c #000000",
"#7 c #000000",
"#8 c #000000",
"a` c #000000",
"a. c #000000",
"a# c #000000",
"aa c #000000",
"ab c #000000",
"ac c #000000",
"ad c #000000",
"ae c #000000",
"af c #000000",
"ag c #000000",
"ah c #000000",
"ai c #000000",
"aj c #000000",
"ak c #000000",
"al c #000000",
"am c #000000",
"an c #000000",
"ao c #000000",
"ap c #000000",
"aq c #000000",
"ar c #000000",
"as c #000000",
"at c #000000",
"au c #000000",
"av c #000000",
"aw c #000000",
"ax c #000000",
"ay c #000000",
"az c #000000",
"aA c #000000",
"aB c #000000",
"aC c #000000",
"aD c #000000",
"aE c #000000",
"aF c #000000",
"aG c #000000",
"aH c #000000",
"aI c #000000",
"aJ c #000000",
"aK c #000000",
"aL c #000000",
"aM c #000000",
"aN c #000000",
"aO c #000000",
"aP c #000000",
"aQ c #000000",
"aR c #000000",
"aS c #000000",
"aT c #000000",
"aU c #000000",
"aV c #000000",
"aW c #000000",
"aX c #000000",
"aY c #000000",
"aZ c #000000",
"a0 c #000000",
"a1 c #000000",
"a2 c #000000",
"a3 c #000000",
"a4 c #000000",
"a5 c #000000",
"a6 c #000000",
"a7 c #000000",
"a8 c #000000",
/* pixels */
"```.`#```a`b`c`d`d`e`f`a```#`.``",
"`.`g`.`h`i`j`k`l`m`n`o`p`q`.`g`.",
"`.```r`s`l`t`u`v`w`x`y`z`A`B```.",
"```C`D`E`F`G`H`v`I`J`K`L`M`A`N``",
"`O`P`m`Q`Q`R`S`T`U`V`W`X`Y`Z`0`O",
"`1`2`3`P`4`5`6`7`8``.`...#.a`o`1",
".b.c.d.e.f.g.h.i.j.k.l.m.n.o.c.b",
".p.q.r.s.t.u.v.w.x.y.z.A`4.B.C.D",
".p.E.F.G.H.I.J.K.w.L.M.N.O.P.Q.D",
".b.c.R.S.T.U.V.W.X.Y.Z.0.1.1.c.b",
"`1.2.3.4.5.6.U.7.8#`#.###a#b.2`1",
"`O#c.C#d#e.5.T#f#g#h#i#j#k#l#m`O",
"```C#n#o#d.4.S.G#p#q.d#a#r`D`C``",
"`.```r#n.o.3#s.F`l#t`Q.o#u`r```.",
"`.`g`.`h#v#w.c.d`m#x#w#y`h`.`g`.",
"```.`#```a`f`e#z`d#A`b`a```#`.``"
};
