/* XPM */
static char *bitcoin64_xpm[] = {
/* width height num_colors chars_per_pixel */
"    64    64      256            2",
/* colors */
"`` c #0c1a4c",
"`. c #748294",
"`# c #8c1a3c",
"`a c #84869c",
"`b c #444e74",
"`c c #9ce2f4",
"`d c #4c224c",
"`e c #24365c",
"`f c #8c7254",
"`g c #fcc654",
"`h c #2c1a44",
"`i c #cc0624",
"`j c #5c6a84",
"`k c #e4e6e4",
"`l c #ec3a4c",
"`m c #ecba54",
"`n c #ec0214",
"`o c #04baf4",
"`p c #0c2a54",
"`q c #a4a6ac",
"`r c #f4f6f4",
"`s c #cc0e24",
"`t c #847254",
"`u c #3c4664",
"`v c #44caf4",
"`w c #6c6254",
"`x c #545e74",
"`y c #f4eaec",
"`z c #b4b6bc",
"`A c #1c2654",
"`B c #d4d2d4",
"`C c #e4020c",
"`D c #64728c",
"`E c #1c2a54",
"`F c #343e64",
"`G c #2c2a54",
"`H c #24c6f4",
"`I c #14224c",
"`J c #8492a4",
"`K c #ec1e2c",
"`L c #7c8ea4",
"`M c #544e54",
"`N c #343654",
"`O c #3c224c",
"`P c #f4fefc",
"`Q c #b4bec4",
"`R c #f4d2d4",
"`S c #dc0a24",
"`T c #6c1e44",
"`U c #e4eef4",
"`V c #ec0a1c",
"`W c #24325c",
"`X c #141a4c",
"`Y c #748a9c",
"`Z c #cccecc",
"`0 c #2c3654",
"`1 c #6c6e84",
"`2 c #fcc254",
"`3 c #14c2f4",
"`4 c #fcf6f4",
"`5 c #dc0e24",
"`6 c #74768c",
"`7 c #444a6c",
"`8 c #64d2f4",
".` c #f4f2f4",
".. c #dcdedc",
".# c #6c7284",
".a c #242a54",
".b c #c43e54",
".c c #8c8e9c",
".d c #4c567c",
".e c #5c1e44",
".f c #f44654",
".g c #2c264c",
".h c #646a7c",
".i c #f4c254",
".j c #142a54",
".k c #a4aebc",
".l c #5c667c",
".m c #fceaec",
".n c #e4021c",
".o c #34c6f4",
".p c #9496ac",
".q c #bcbec4",
".r c #eceeec",
".s c #fc0a1c",
".t c #bce6f4",
".u c #2c3664",
".v c #747e9c",
".w c #0c1e4c",
".x c #7c869c",
".y c #ac1234",
".z c #8c869c",
".A c #4c5274",
".B c #9c7e54",
".C c #fcd254",
".D c #cc0a24",
".E c #f4ba54",
".F c #0cbef4",
".G c #3c4a6c",
".H c #5cd2f4",
".I c #f4eeec",
".J c #b4bac4",
".K c #1c2e5c",
".L c #142654",
".M c #545a7c",
".N c #44224c",
".O c #e40a1c",
".P c #f40a1c",
".Q c #fcfaf4",
".R c #e40e24",
".S c #e4e2e4",
".T c #6c7694",
".U c #642a4c",
".V c #34264c",
".W c #ecf2f4",
".X c #748694",
".Y c #848aa4",
".Z c #445274",
".0 c #8c7654",
".1 c #fcca54",
".2 c #d40214",
".3 c #5c6e8c",
".4 c #eceaec",
".5 c #f43a4c",
".6 c #fc0614",
".7 c #04bef4",
".8 c #0c2a5c",
"#` c #acaab4",
"#. c #7c1a3c",
"## c #74d6f4",
"#a c #cceaf4",
"#b c #bc122c",
"#c c #5c5654",
"#d c #5c6284",
"#e c #d4dadc",
"#f c #2c325c",
"#g c #746654",
"#h c #f41a2c",
"#i c #fcced4",
"#j c #acb2bc",
"#k c #3ccaf4",
"#l c #d40e24",
"#m c #242654",
"#n c #2cc6f4",
"#o c #8c92a4",
"#p c #fcfefc",
"#q c #7c8a9c",
"#r c #1cc2f4",
"#s c #641e44",
"#t c #7c7e9c",
"#u c #f4fafc",
"#v c #34426c",
"#w c #ec0e24",
"#x c #242e5c",
"#y c #bcc2cc",
"#z c #44cef4",
"#A c #64768c",
"#B c #7c92a4",
"#C c #343a54",
"#D c #3c264c",
"#E c #141e4c",
"#F c #747a8c",
"#G c #e4061c",
"#H c #949aac",
"#I c #2c3a64",
"#J c #f4be54",
"#K c #e41224",
"#L c #3c466c",
"#M c #b4b6c4",
"#N c #e40214",
"#O c #1c2a5c",
"#P c #142254",
"#Q c #b4becc",
"#R c #ccced4",
"#S c #2c365c",
"#T c #444a74",
"#U c #dcdee4",
"#V c #6c728c",
"#W c #2c2654",
"#X c #646a84",
"#Y c #142a5c",
"#Z c #5c6684",
"#0 c #eceef4",
"#1 c #0c1e54",
"#2 c #f4eef4",
"#3 c #e40a24",
"#4 c #fcfafc",
"#5 c #000000",
"#6 c #000000",
"#7 c #000000",
"#8 c #000000",
"a` c #000000",
"a. c #000000",
"a# c #000000",
"aa c #000000",
"ab c #000000",
"ac c #000000",
"ad c #000000",
"ae c #000000",
"af c #000000",
"ag c #000000",
"ah c #000000",
"ai c #000000",
"aj c #000000",
"ak c #000000",
"al c #000000",
"am c #000000",
"an c #000000",
"ao c #000000",
"ap c #000000",
"aq c #000000",
"ar c #000000",
"as c #000000",
"at c #000000",
"au c #000000",
"av c #000000",
"aw c #000000",
"ax c #000000",
"ay c #000000",
"az c #000000",
"aA c #000000",
"aB c #000000",
"aC c #000000",
"aD c #000000",
"aE c #000000",
"aF c #000000",
"aG c #000000",
"aH c #000000",
"aI c #000000",
"aJ c #000000",
"aK c #000000",
"aL c #000000",
"aM c #000000",
"aN c #000000",
"aO c #000000",
"aP c #000000",
"aQ c #000000",
"aR c #000000",
"aS c #000000",
"aT c #000000",
"aU c #000000",
"aV c #000000",
"aW c #000000",
"aX c #000000",
"aY c #000000",
"aZ c #000000",
"a0 c #000000",
"a1 c #000000",
"a2 c #000000",
"a3 c #000000",
"a4 c #000000",
"a5 c #000000",
"a6 c #000000",
"a7 c #000000",
"a8 c #000000",
/* pixels */
"#p#p#p#p#p#p#p#p#p#p#p#p#p#p#p#p#p#p#p#p#4#p#p#p#p.``Z#`.c#F.h.l.l.h#F.c`q#R.`#p#p#p#p#4#p#p#p#p#p#p#p#p#p#p#p#p#p#p#p#p#p#p#p#p",
"#p#p#p#p#p#p#p#p#p#p#p#p#p#p#p#p#p#p#p#p#p#p`B.c`x`F`E#O`E#O`E#O#O#O`E#O#O`E`F`x.c#R#p#p#p#p#p#p#p#p#p#p#p#p#p#p#p#p#p#p#p#p#p#p",
"#p#p#p#p#p#p#p#p#p#p#p#p#p#p#p#p#p#p#p.S.c#L`E#O#O`A`E`E`E`E`E`E`E`E`E`E`E`E`A#O#O#O`u.c.S#p#p#p#p#p#p#p#p#p#p#p#p#p#p#p#p#p#p#p",
"#p#p#p#p#p#p#p#p#p#p#p#p#p#p#p#p#p#e`1#x#O`E`A`E`E`E`A`A`E`A#O`A`E`A`E`A`E`A`E`E`E`E`E#O#x`1..#p#p#p#p#p#p#p#p#p#p#p#p#p#p#p#p#p",
"#p#p#p#p#p#p#p#p#p#p#p#p#p#p#p.4`6.a#O`E`E`E`A#O`A`E`A#Y`A`E`A`E`A#O`A`E`A#O`A`E`E`A#O`E`E#O#O`6.4#p#4#p#p#p#p#p#p#p#p#p#p#p#p#p",
"#p#p#p#p#p#p#p#p#p#p#p#p#p#p`q.u#O`E`E`A#O`A`E`A`E`A`E`A`E`A`E`A`E`A`E`A.j`A`E`A`E`A`E`A`E`E`E#O#S`q#p#p#p#p#p#p#p#p#p#p#p#p#p#p",
"#p#p#p#p#p#p#p#p#p#p#p#p.`#X#O`E`E`E`A`E`A`E`A`E`A#O`A`E.L#O`A.j`A#O.L`E`A#O`A.j`A#O`A`E`A`A`E`E#O#O#X.`#p#p#p#p#p#p#p#p#p#p#p#p",
"#p#p#p#p#p#p#p#p#p#p#p`B`u#O`E`E`A#O`A`E`A#O`A.j`A`E.L#O`A`E`A#O`A`E`A#O.L`A`E`A`E`A`E`A#O`E`A`A`E.a#O`u`B#p#4#p#p#p#p#p#p#p#p#p",
"#p#p#p#p#p#p#p#p#4#p.q.u`A`E`A#O`A`E`A#O`A.j`A`E`A#O`A`E`A`E`A`E`A`E.L`E#x`A`A#O`A`E`A`E`A`E`A#O`A`E`E`A.u.q#p#p#p#p#p#p#p#p#p#p",
"#p#p#p#p#p#p#p#p#p`z#x`E#O`E`A`E`A`E`A.j`A`E`A#O`E`A`E`A.j`A`E.L`E#O``#X#j#P`E.L`E`A#Y`A`E.L`E`A.j`A#O`E`A.K`z#p#p#p#p#p#p#p#p#p",
"#p#p#p#p#p#p#p#p.q#x`E`A`E`A`E`A`E.L`E`A`E`A#O`I`E`A.j`A#O`A`E`A`E`A.L#f#L.L`E`A`E`A`E`A`E`A#O`A`E`A`E`A`E#O#x.q#p#p#p#p#p#p#p#p",
"#p#p#p#p#p#p#p`B#S`A`E`A`E`A#O.L`E`A#O`A`E`E```b.w`A#O`A`E`A#O`A`E`A`E.L#P`A`E`A#O`A`E`A#O`A`E`A`E`A`E`A`E`A`E`W`B#p#p#p#p#p#p#p",
"#p#p#p#p#p#p#0#L#O`E#O`A`E.L`E`A#O`A`E.L#O#P`D.`.x.L`A`E`A.j`A`E.L#O`A`E`E`A#O`A`E.L`E`A.j`A`E`A`E`A#O.L`E`A#O#O#L.r#p#p#p#p#p#p",
"#p#p#p#p#p#p`1`E`E`A`E`A`E`A#O`A`E.L`E`A`E#P.p#p#`#O`A`E`A`E`A#O`A`E`A`E`A`E`A.j`A`E`A`E`A#Y.j.8.8.j`A`E`A`E`A`E#O`1#p#p#p#p#p#p",
"#p#p#p#p#p`q#O`E`A`E`A#Y`A`E`A.j`A`E`A`E`A`A.w.T`A.L`E`A#Y`A`E`A`E`A`E`A#O.L`E`A`E#Y.8.8`E.g.N#s`#.e#Y`A`E.L`E`E`E#O`q#p#p#p#p#p",
"#p#p#p#p.4#I`A`E`A#O`A`E`A`E`A`E`A#O`A`E`E`E`E#E`A`E`A`E`A`E`A.j`A#O.L`E`A`E`A.8`A.N#..y`s#3`V.P.6`#`p`A#O`A`E`A`A`E#I.4#p#p#p#p",
"#p#p#p#p#F#O`E#O`A`E`A`E.L#O`A`E`A`E`A#Y`A`A#O`E`E`A#O`A`E.L#O`A`E`A`E#O`E`p#O`T#b`V.P.P`V`V#3#3.P.e`p`A`E`A`E`A#O`E#O`6#p#p#p#p",
"#p#p#p`B#x`E`A`E`A`E.L#O`A`E`A.j`A#O`A`E`A`E`A`A#O.L`E`A`E`A`E`A`E`A#O`I.L.U`i.P.P`V#G`V#3`V`V.O`V.N.L`A`E`A#O`A`E`A`E#x`B#p#p#p",
"#p#p#p.T`E`E`A`E`A#O`A`E`E`A`E`A`E`A.j`A`E`A.j`E`A`E`A`E.L#O`A`E.L.K#E`W#Q#i#h#N.R`V#3`V`V#3`V`V`S.V#Y`A`E`A.j`A`E`A`E#O.##p#p#p",
"#p#p.S#x`A`E`A#O`A.j`A`E.L`A#O`A.j`A`E`A#O`A`E`A`E`A#Y`A`E`A`E`A.K`X.G.S#p`P`R`K.n#w`V#3`V#3.O.P`s`A`A`E`A#O`A`E`A#Y`A`E`W#U#p#p",
"#4#p.c`E`E#O`A`E`A`E`A#O`W`A.L`E`A#O`A`E.L`E`A#O.L`E`A`E`A`E.L.K``.Z.r#4#0.I`P`R`K#N#w`V#3`V#3.P.y.8`E`A`E.L`E`A`E`A`E`E#O.c#p#p",
"#p#p`7#O`E`A`E.L`E#O.w.M.J`A`A`E`A`E.L`E`A#O`A`E`A`E`A#O.L`E.a``.A#0`4.W.`.`.r`P`R`K.n#w`V`V#3.6#..8`E`A`E`A#O`A`E`A`E#O`E`7#p#p",
"#p#R#O`A`E`A`E`A`E`A`A`W#L.L`A#O`A`E`A#O`A`E.L`E`A#O.L`E`A.K``.Z#0`4.W.`.``r.`#2`P`R`K#N.R`V#3`V.N.j`A`E`A`E.L`E`A#Y`A`A`E#O`Z#p",
"#p.c.K`E`A`E`A#O`A`E`A.L#P`A`E`A.j`A`E`A.j`A`E`A`E`A`E`A.K``.A.r`4.W.``r.`.W.`.`.r`P`R`K.n#w.P#b.L`E`A#O.L`E`A#O`A`E`A`E`E#O.c#p",
"#p#d`E`E`A#O`A.j`A`E`A`E`E`A`E`A#O`A`E`A`E#O`p#Y.j#Y`A.K``.A.r`r.W`4`4.W.``4.``r.`#2`P`R`K#N.P`T.8`A`E`A`E`A`E`A`E`A`E`A#O#O`x#p",
".r#C#O`A`E`A`E`A`E`A#Y`A`A#O`A`E`A.j`A`E#Y.g.e`d`O.g.a`X.A.4#u#2`4.t#k`3#n`c`4.`.`.`.r`P`R#h`i`A`E`A`E`A#O`A.j`A`E.L#O`A`E`E`F#0",
"#R#O`E`A`E`A.j`A#O`A`E`A`E`A.j`A`E`A`E.8`O#l.6`V`V.R.2.b.r`4.W`4#a.F`o`o.7`o`c`4.W.`.`.I`P`R.U`p`A`E`A`E.L`E`A#O`A`E`A`E`A`A#O`Z",
"#``E`E`A#O`A`E`A`E`A`E`A.j`A#O`A`E`A#Y`O`5.P#3#3#w`n.5.m#u#0.``4`8`o.7.7.7`o.o.I`r.``r.r#p.J.8`A`A`E`A#O`A`E`A`E`A`E.L`E`A`E#O#`",
".c#O`E`E`A.j`A#O`A.j`A#O`A`E`A`E`A.8#D`S`V#3`V#w#N`l.4#u.I`r.``4`v`o.7.7.7`o#r.W`r.`.r#4#U#f#P`E`A#O`A.j`A`E`A.j`A#O`A`E`A#O`E.c",
"#F#O`E`E`A#O`A`E`A`E`A`E`A`E.L`E#Y`O`5.P.O`V.R`n`l`y#u.I.`.`.W`4##`o.7.7.7`o#k`4.I.W.Q.r.G#E#O`E`A`E`A`E`A#O`A`E`A`E`A#Y`A`E#O#F",
".h#O`E`E`A`E.L`E`A#O.L`E`A#O`A#Y`O.R`V.O`V#w#N`l`y#u.I.W`r.``r`4`U`H`o`o`o.7.t`4.r.Q.r.Z``.K`E`A`E`A`E`A#O`E`A`E.L#O`A`E`E`E#O.h",
".l`E#O`A`E`A#O`A`E`A`E`A`E`A.8#D`S`V.O`V.R`n`l`y#u.r`r.`.`.`.`.W`4`U###k.H#a`4.I.Q.r.Z``#x`A`E`A`E`A#Y`E`I#1`E`A`E`A`E`A`A#O`E.l",
".l#O`E`A#O.L`E`A`E.L#O`A`E#Y.N`V.s`V`V`V#N`l`y#u.I.`.``r.`.W`r.`.W.I.Q`4`4`4.r.Q.r.Z``#x`A`E`A`E.L#O`E``#V#o.w#O`A`E.L#O`E`E#O#d",
".h#O`E`A`E`A`E`A#O`A`E`A`E`p`T#b#b#l`5.n.f`y#u.r`r.`.`.W`r.`.`.``r.`.r.I`r.r.Q.r.Z``#x`A`E`A.j`A`E`A`E#P`b#d#P`E`A`E`A`E`A`E#O.h",
"#F#O`E`A`E`A#Y`A`E`A.j`A`E`A.j.j.L#m#W`h.z#p.I.`.``r.`.`.``r.`.`.``r`r`r.r.Q.r`b``#x`A.j`A`E`A#O`A`E`A`E#P.w`E`A`E`A#O`A`E`E#O#F",
".c#O`E`A#O`A`E`A`E`A#O`A`E`A`E`A`A.j`E#Y``.Y#p.W.`.`.W`r.`.``r.I`r.`.`.I#u.r.Z``#x.L`E`A`E`A`E`A`E`A#O`A`E`E`A#O`A.j`A`E`A#O`E.c",
"#``E`E`A`E.L`E`A#O.L`E`A`E`A#O`A`E`A`A`E#P.G#y.Q.``r.`.``r.W.``r.W.`.I#u.m.b`X`E`E`A`E`A`E`A`E`A#O`A`E`A`A`E`A`E`A`E`A#O`A`E#O#`",
"`Z#O`A`E`A`E`A`E`A`E`A`E.L`E`A.j`A#O`E#P#S`Y`.`Q.Q.W.`.`.``r.I`r.`.I#u.4`l.2`G.j`A`E`A`E.L`E`A.j`A`E.L`E#O`A`E`A#O`A.j`A`E`A`E`Z",
".r`F`E`A#O`A.j`A`E`A#Y`A`E`A#O`A`E`A`E`A.3`L#q`.`Q.Q.`.W`r.``r.`.I`P.4`l`n.R.g`E`A`E`A`E`A#O`A`E`A`E`A`E`A.j`A`E.L`E`A`E`A#Y`F.r",
"#p`x#O`E`A`E`A#O`A`E`A`E`A`E`A`E`A`E`E#P`D#B.X#q`.#Q.Q.`.`.W.`.I#u`y`l`C#w`V`O.j`A`E`A#Y`A`E`A#O`A`E`A#Y`A`E`A#O`A`E`A#O`E#O`x#p",
"#p.c#O#O`E`A`E.L`E`A`E`A#Y`A`E.L#O`A#P#C#P`D`J`Y`Y`.`Q#u.I`r.I`P.4`l`C#w.O`V`d.j`A`E`A`E`A`E.L`E`A#Y`A`E`A`E`A`E`A`E.L`E`E#O.c#p",
"#p#R`E`E`A`E`A#O`A`E.L#O`A`E`A`E`A.L.B`2`w#1#A`J`Y#q`.#Q#p.``r.I`l`C#w`V.O.6.e`p`A`E`A`E.L`E`A`E`A`E`A`E`A#Y`A`E.L#O`A`E`A#O`Z#p",
"#p#p`7#O`E`A.j`A`E`A`E`A`E`A`E#O#1`t.1#J`g`w```D#B`L#q.G.Y#p`y`l`C#w.O.O.P`S#W.j`A#O`A`E`A#O`A`E`A#O`A.j`A`E`A`E`A`E`A`E#O`7#p#p",
"#4#p.c#O`E`E`A#O`A`E`A`E.L#O`A.L`0`m#J.E#J`g`w#P`D.3`e`I```a.f`C#w`V.O.P`S`O.j`A`E`A`E.L`E`A`E.L#O`I`E`A`E`A#O`A`E`A#O`E#O.c#p#p",
"#p#p#U`W`A`E`A`E`A#Y`A`E`A`E`E#1#c`g.E#J.E#J.i#C`I`A`I`E.j`h#G`V.O.O.P`S.N`p.a`A`E`A#O`A`E`A#O`A.w#v#P`A`A.j`A`E.L`E`A`E`W..#p#p",
"#p#p#p.##O`E`A#O`A`E`A`E`A`E`E#1#g`2`m.E#J.1.B`I`E`E#O`A`E#W`5`V#3.P`S.N.8#m`E`A#O`A`E`A#Y`A`E#P#Z.4.v.L`A`E`A#O`A`E#O#O.##p#p#p",
"#p#p#p`B#x`E`A`E.L`E`A#O.L`E#O``.0.C`g`g`m`f`I`E`E`A`A`E`A`E#l`V.P`S.N`p`A`E`A.j`A`E.L`E`A`E`E#P#H#p#M`E`A`E`A`E`A`E`A.K`B#p#p#p",
"#p#p#p#p#F#O#O`E`A`E`A`E`A`E`E#P`M.0#g#c`N.w`E`A`E`A`E`A`E.L#b.6`S`O.8#m`E`A`E`A`E`A`E`A`E`A`A`A#E`..a.L`E`A#O.L`E#O#O#F#p#p#p#p",
"#p#p#p#p.4#I`E`A`E`A#O.L`E`A`A#O#P``#1.w.L`E`A`E`A#O`A`E`A#Y#b`V`O#Y`E`A`E`A#O`A`E`A#O`A`E`A#Y`E#O.w`A#O`A`E`A`E`A`E#I.4#p#p#p#p",
"#p#p#p#p#p`q#O`E`A`E`A`E`A#O`E`A`E`E`E.a`E`A`E`A.j`A`E`A`E#Y#s.N.8`A`E`A`E`A.j`A#O.L`E`A#Y`A`E`A`A#O`E`A`E`A`E`A`E#O`q#p#4#p#p#p",
"#p#p#p#p#p#p#X#O#O`E`A`E`A`E`A`E`A#O`A`E`A`E`A`E`A`E`A#Y`A`A.j.L`E`A`E`A`E`A`E`A`E`A`E`A`E`A`E`A`E`A`E`A`E.L#O`E#O#X#p#p#p#p#p#p",
"#p#p#p#p#p#p.I#L`E`E`A#O`A.j`A#O`A`E`A`E`A`E`A`E`A#Y`A`E`E`A`E`A`E`A`E`A#O.L`E`A`E`A`E`A`E`A`E`A`E`A`E.L#O`A`E#O`u.r#p#p#p#p#p#p",
"#p#p#p#p#p#p#p`B.u`A`E`A`E`A`E`A.j`A`E`A#Y`A`E.L#O`A`E`A`A`E`A`E`A`E`A`E`A`E#O`A.j`A#O.L`E`A#Y`A`E.L#O`A`E`E`A.u`B#p#p#p#p#p#p#p",
"#p#p#p#p#p#p#p#p.q.K`E#O`A`E.L`E`A#O`A`E`A`E`A`E`A`E`A.j#O`A.j`A#O`A.j`A#O.w`A`E`A`E`A`E`A`E`A`E`A#O`A`E`A#O.K.q#p#p#p#p#p#p#p#p",
"#p#p#p#p#p#p#p#4#p`z.K`A`E#O`A`E`A`E.L`E`A#O`A`E`A.j`A`E`A`E`A`E`A`E`A`E`A.d`W`A`A#O`A`E`A#O`A`E`A`E`A`E`E.K`z#p#4#p#p#p#p#p#p#p",
"#p#p#p#p#p#p#p#p#4#p.q.u`E`E`A#O.L`E`A#O`A.j`A`E`A#O`A`E`A#O`A.j`A#O`E.L.K.J`b#E#O.L`E`A.j`A`E.L#O`A`E#O`W.q#p#4#p#p#p#p#p#p#p#p",
"#p#p#p#p#p#p#p#p#p#p#p`B#L#O`E`E`A`E`A`E`A`E`A#O.L`E`A#O.L`E`A#O`A`E`A`E`A`A`A`E`A`E`A`E`A#O`A`E`E`E#O`u`B#p#p#p#p#p#p#p#p#p#p#p",
"#p#p#p#p#p#p#p#p#p#p#p#p#2`j#O`E#O`A`E.L`E`A`E`A`E`A`E`A`E`A`E`A.j`A`E`A`E`A.j`A`E`A`E`A`E`A`E#O`A.K.h#0#p#p#p#p#p#p#p#p#p#p#p#p",
"#p#p#p#p#p#p#p#p#p#p#p#p#p#p`q#S#O`E#O`A`E`A#Y`A`E`A.j`A`E`A.j`A`E`A#O`A.j`A#O`A`E.L#O`A.j#O`E#O#S`q#p#p#p#p#p#p#p#p#p#p#p#p#p#p",
"#p#p#p#p#p#p#p#p#p#p#p#p#p#4#p.4`6.K#O`E#O`E`A`E`A#O`A`E`A#O`A`E`A`E.L`E`A`E`A`E`A#O`E`E`A#O#x`6`k#p#4#p#p#p#p#p#p#p#p#p#p#p#p#p",
"#p#p#p#p#p#p#p#p#p#p#p#p#p#p#p#p#p..`1#x#O`E`A`E#O`E`A.j`A`E`A#O.L`E`A#O`A`E.L#O`E`A`E#O#x.#`B#p#p#p#p#p#p#p#p#p#p#p#p#p#p#p#p#p",
"#p#p#p#p#p#p#p#p#p#p#p#p#p#p#p#p#4#p#p.S.c`u#O#O`E#O`A`E#O`E`E`E#O`E#O`E`E`A#O#O#O#O`u.c#U#p#p#p#p#p#p#p#p#p#p#p#p#p#p#p#p#p#p#p",
"#p#p#p#p#p#p#p#p#p#p#p#p#p#p#p#p#p#p#4#p#p#p`Z.c`x#I`E#O#O#O#O`E#O`E#O#O#O`E#I`x.c`Z#p#p#p#p#p#p#p#p#p#p#p#p#p#p#p#p#p#p#p#p#p#p",
"#p#p#p#p#p#p#p#p#p#p#p#p#p#p#p#p#p#p#p#p#4#p#p#p#p.``Z#`.c`6.h.l#d.h`6.c`q#R.`#p#p#p#p#4#p#p#p#p#p#p#p#p#p#p#p#p#p#p#p#p#p#p#p#p"
};
